<svg id="Layer_2" data-name="Layer 2" xmlns="http://www.w3.org/2000/svg" viewBox="0 0 6912.01 6561"><defs><style>.cls-1{fill:#231f20;}</style></defs><path class="cls-1" d="M5181.87,3823.53l-1.35,0H3252c-.83,0-1.67,0-2.51,0H796.33a36,36,0,0,1-36-36V3012q0-.77,0-1.53V2235.67q0-.59,0-1.17V1669.25c0-.51,0-1,0-1.52V682.54a36,36,0,0,1,36-36h6840a36,36,0,0,1,36,36v3105a36,36,0,0,1-36,36H5183.21Zm1047.48-72h1371V3435.42H6890.61a93.64,93.64,0,0,1-6.34,7c-8.67,8.66-20.85,18.06-37.25,28.72-27.09,17.62-67,39.4-118.49,64.73-82.4,40.5-195.83,90.82-337.15,149.57-.58.26-1.16.5-1.75.73C6332.85,3709.73,6277.85,3732.06,6229.35,3751.51Zm-615.29,0h418.88c28.72-11.08,153.43-59.43,296-118.17l-87.18-197.92H5835.35c-4.88,26.59-17.52,56.9-38.1,91.58-23,38.77-56.33,83.56-99,133.13C5668.72,3694.35,5639,3726,5614.06,3751.51Zm-408.61,0H5511.7c22.42-21.43,78.49-76.27,132.34-138.82,79.45-92.28,107.78-146.91,117.24-177.27H5067.73Zm-989.13,0h910.6l-137.73-316.09H3443.45l-137.72,316.09Zm-1295.37,0H3227.2l137.71-316.09H2671.36c9.48,30.41,37.89,85.16,117.62,177.71C2842.81,3675.6,2898.6,3730.15,2921,3751.51Zm-521.25,0h418.89c-25-25.55-54.67-57.16-84.15-91.38-42.71-49.57-76-94.36-99.05-133.13-20.58-34.67-33.22-65-38.1-91.58H2190.9l-87.18,197.92C2246.27,3692.08,2371,3740.43,2399.7,3751.51Zm-1567.37,0h1371c-48.49-19.44-103.45-41.76-160.22-65.35-.63-.24-1.26-.5-1.87-.78-141.29-58.73-254.71-109-337.09-149.54-51.54-25.33-91.4-47.11-118.49-64.73-16.4-10.66-28.58-20.06-37.25-28.72a93.64,93.64,0,0,1-6.34-7H832.33Zm834.26-316.09c25.29,13.93,56.61,29.86,93.44,47.53,72,34.53,165.13,75.77,277.19,122.75l75-170.28Zm4653.83,0,75,170.28c112.06-47,205.2-88.22,277.19-122.75,36.84-17.67,68.15-33.6,93.44-47.53Zm698.81-72h581.1v-293.6Zm-730.53,0H6816c-16.84-33.57-49-85.65-110.21-165-50.45-65.4-101.87-124.86-125-151.17H6149.48Zm-460.78,0H6210L6070.8,3047.3H5480.49c71.23,43.84,132.4,85.93,182.7,125.75C5752.38,3243.67,5806.63,3306.28,5827.92,3363.42Zm-753.49,0h673.8C5729.07,3331,5691.1,3287,5618.5,3229.5c-70.94-56.16-165.13-117.44-280.05-182.2h-85.61Zm-739.23,0h616.54L4785.69,3063Zm-854.3,0h616.57L3647,3063Zm-796.49,0h673.8L3179.8,3047.3h-85.61c-114.92,64.76-209.11,126-280.05,182.2C2741.54,3287,2703.57,3331,2684.41,3363.42Zm-461.8,0h382.11c21.29-57.14,75.54-119.75,164.73-190.37,50.3-39.82,111.47-81.91,182.71-125.75H2361.84Zm-606,0h527.34l139.22-316.12H1851.84c-23.11,26.26-74.56,85.76-125,151.17C1665.64,3277.77,1633.44,3329.85,1616.6,3363.42Zm-784.27,0h581.08l-581.08-293.6Zm2920.9-316.12,463.1,308.85,463.08-308.85H3753.23Zm-2805.82,0,596.53,301.41c21.41-48.61,63-112.72,125.87-194.22,30.93-40.09,61.77-77.52,86.91-107.19Zm5728.49,0c25.13,29.68,56.2,67.35,86.94,107.19,62.87,81.5,104.45,145.61,125.86,194.22l596.54-301.41Zm-1816.6,0,153.8,278.29,157.06-278.29Zm-1596.82,0,157.06,278.29,153.8-278.29Zm3399.3-72H7588c-15.9-25.05-46.86-52.77-90.91-80.94-61.46-39.32-147.88-79.79-256.85-120.29-149.19-55.45-300.23-95.64-357-110.05Zm-555.08,0h466.71l224.94-316.13H5703.08Zm-749.45,0h632.69l-402.25-315.05-444.07,204C5196.52,2889.94,5274,2928.92,5357.25,2975.3Zm-537.75,0h385.18c-90.19-46.46-156.2-76.56-160.82-78.66l-.24-.11c-.6-.26-1.19-.55-1.77-.85l-370-187.49Zm-603.18,0h520.92l-174.71-316.13H3870.11L3695.4,2975.3Zm-988.36,0h385.18l147.62-267.11-370,187.52c-.43.23-.86.44-1.3.64l-.64.29C3384.17,2898.74,3318.16,2928.83,3228,2975.3Zm-785.26,0h632.69c83.28-46.38,160.73-85.36,213.63-111.08l-444.07-204Zm-583.46,0h466.7l403.62-316.13H1634.29Zm-1014.59,0h926.22L1549.37,2664c-56.74,14.41-207.78,54.6-357,110.05-109,40.5-195.39,81-256.85,120.29C891.5,2922.53,860.54,2950.25,844.65,2975.3Zm6282.78-316.13c44.07,14.07,90.79,29.91,137.34,47.2,113.9,42.3,205,85.1,270.91,127.19q37.38,23.89,64.65,48V2659.17Zm-6295.1,0v222.4c18.12-16,39.73-32.09,64.64-48,65.86-42.09,157-84.89,270.91-127.19,46.55-17.29,93.27-33.13,137.34-47.2Zm2182.77,0,358.33,164.59,324.77-164.59H3015.1Zm1719.34,0,324.77,164.59,358.33-164.59h-683.1Zm2388.93-72h477V2271.05h-193c-1.91,16.5-4.7,37.7-8.48,60.14-16,94.64-35,124.77-47.91,139.2C7317.2,2508,7242.55,2546.38,7123.37,2587.17Zm-743.81,0h459.83l71.54-316.12H6089.71Zm-673.51,0h575.82l-271.2-295.78-141.41,189.05a35.71,35.71,0,0,1-4.82,5.49,35.32,35.32,0,0,1-5.9,4.44l-140.37,89.11a.57.57,0,0,1-.13.08Zm-410.93,0h276.59l93.67-59.46,11.69-87c-63.52,32.62-89.13,38.82-102.88,40.63-9.48,1.26-38.32,5.07-133.72-15.62-25.59-5.55-48.92-11.31-64.61-15.35l-69.56,68.33Zm-216.61,0h143.66l14.05-86.09-39.87-259.82a36.87,36.87,0,0,1-.49-4.35,36.44,36.44,0,0,1,0-4c.59-14.28,4.77-111.08,11.44-147,8.5-45.78,40.83-143.82,61-202.93H5025.26c5.34,15.48,11.39,33.63,17.41,52.9,24,76.93,34.73,130.11,32.66,162.59-2.61,41.21-36.89,124.24-46.86,147.63-12.68,58.88-30,160.33-24.4,192.49C5008.64,2464.76,5047.37,2535.91,5078.51,2587.17Zm-479.6,0H4995c-3.17-5.52-6.43-11.29-9.72-17.21-45.74-82.21-50.56-110-52.15-119.08-1.66-9.52-6.69-38.48,9.25-136.29,2.56-15.73,5.24-30.64,7.67-43.54H4390.37C4436.7,2354,4529.39,2512.93,4598.91,2587.17Zm-334.58,0h240.92c-60.05-78.27-124.46-186.63-165.35-258.83Zm-336.94,0h240.92l-75.57-258.83C4051.85,2400.54,3987.44,2508.9,3927.39,2587.17Zm-489.76,0h396.1c69.52-74.24,162.21-233.17,208.54-316.12H3482.58c2.43,12.9,5.11,27.81,7.67,43.54,15.94,97.81,10.91,126.77,9.25,136.29-1.59,9.12-6.41,36.87-52.15,119.08C3444.06,2575.88,3440.8,2581.65,3437.63,2587.17Zm-227.16,0h143.65c31.15-51.28,69.89-122.45,74.45-148.63,5.59-32.16-11.72-133.61-24.4-192.49-10-23.39-44.23-106.42-46.86-147.63-2.06-32.48,8.62-85.66,32.66-162.59,6-19.27,12.07-37.42,17.42-52.9H3164.3c20.19,59.12,52.53,157.2,61,202.93,6.68,35.93,10.86,132.78,11.44,147a36.33,36.33,0,0,1-.47,8.39l-39.87,259.82Zm-349.54,0h276.59l-11.18-68.49-69.55-68.33c-15.7,4-39,9.8-64.62,15.35-95.4,20.69-124.23,16.88-133.71,15.63-28.58-3.79-72.21-24.88-102.89-40.64l11.69,87Zm-710.16,0h575.82l-11.81-7.49-.49-.31-140.17-89a36.2,36.2,0,0,1-10.75-10l-141.4-189Zm-557.52,0h459.83l289.85-316.12H1521.71Zm-760.92,0h476.95c-119.19-40.79-193.83-79.14-227.54-116.78-27-30.12-40.27-93.87-47.92-139.2-3.78-22.44-6.56-43.64-8.48-60.14h-193Zm6152.42-316.12L6916.2,2574c36.51-9.59,86.95-23.56,139.6-40.31,172.58-54.94,225.37-93.31,241.47-111.29,2.7-3,16.84-22.11,30.47-102.67,3-17.52,5.29-34.43,7-48.64h-350Zm-5886.89,0c1.75,14.21,4.08,31.12,7,48.64,13.64,80.56,27.78,99.66,30.48,102.67,16.1,18,68.89,56.35,241.47,111.29,52.64,16.75,103.09,30.72,139.59,40.31l-68.55-302.91h-350Zm3040-45.21,78.5,268.86,78.5-268.86a1.94,1.94,0,0,1,.05-.2c.06-.2.11-.41.17-.61l100.7-379.41-66.86-350.81H4103.76l-66.86,350.81L4137.6,2225c.06.2.12.41.17.61A1.94,1.94,0,0,1,4137.82,2225.84Zm1620,154.22-13.06,97.24,70.27-44.61,155.74-208.21-29.55-341.55h-152.5c7.95,12.14,16.17,25.19,23.94,38.39,32.86,55.77,38.29,81.36,39.52,95.75,3.37,39.72-20.36,102.17-38.5,145.69-15.68,37.61-31.55,70.33-37.83,83l-18,133.69C5757.91,2379.67,5757.89,2379.86,5757.86,2380.06Zm-3140.29,52.63,70.27,44.61-13.05-97.18c0-.24-.07-.48-.1-.72l-17.94-133.62c-6.28-12.69-22.15-45.41-37.83-83-37.88-90.87-40.11-126.66-38.5-145.68,1.23-14.4,6.66-40,39.52-95.76,7.78-13.2,16-26.24,23.94-38.39H2491.39l-29.56,341.55Zm475.52-47.6,42,41.22,29.66-193.26c-1.36-31.7-5.4-108.31-10.18-134-6.81-36.72-33.68-120-54.43-181.29-11.84,14.27-22.1,27.33-26.44,34.48-8.39,13.83-27.41,61.11-37.65,88.22a35.48,35.48,0,0,1-2.14,4.87,36.2,36.2,0,0,1-2.76,4.43l-125,178.88,184.07,153.87A35.5,35.5,0,0,1,3093.09,2385.09Zm2174.84-152,29.66,193.26,42-41.22a35.5,35.5,0,0,1,2.87-2.62l0,0,184-153.84-124.94-178.86a35.81,35.81,0,0,1-2.84-4.55,37,37,0,0,1-2.08-4.77c-10.24-27.11-29.26-74.39-37.65-88.22-4.34-7.15-14.6-20.21-26.43-34.47-20.76,61.3-47.62,144.54-54.44,181.27C5273.33,2124.74,5269.29,2201.35,5267.93,2233.05ZM2743.74,2352.56c11,6.18,27,15,44.23,23.83,55.86,28.71,75.3,32.94,79.93,33.56,20.46,2.7,72-6.25,122-17.47l-154.74-129.35a35.12,35.12,0,0,1-5.58-5.59,34.4,34.4,0,0,1-2.2-3.07l0,0,0,0a35.4,35.4,0,0,1-3.11-6.1l-130-310.5c-27.44,43.71-41.06,73.71-42.06,85.38-.53,6.27.29,32.89,33.22,111.87,17.36,41.64,35.37,77.76,38,83a35.27,35.27,0,0,1,2.55,6.06,36.21,36.21,0,0,1,1.48,7Zm2699,39.92c50,11.22,101.58,20.17,122.05,17.47,4.62-.62,24.06-4.85,79.92-33.56,17.27-8.88,33.22-17.65,44.23-23.83l16.31-121.47a36.23,36.23,0,0,1,4-13c2.64-5.27,20.82-41.73,38.2-83.46,32.77-78.69,33.58-105.23,33-111.49-1-11.67-14.62-41.66-42.06-85.37l-130,310.51a36.41,36.41,0,0,1-3.05,6v0l0,.05a34.71,34.71,0,0,1-2.38,3.32,35.74,35.74,0,0,1-5.44,5.42Zm1753-193.43h316.4L7334.13,2086.5c-.48-.29-.95-.58-1.41-.89l-137.07-86.71Zm-238.94,0h166.94v-245.7L7106,1942.19c-33.24,29.76-102.84,91.15-178.14,151.93-52.63,42.49-99.35,77.69-139.21,104.93h166.53C6955.69,2199,6956.21,2199,6956.72,2199.05Zm-426.5,0h103.91c3.89,0,26.74-2.26,95.08-46.87,41.87-27.33,93.41-65.64,153.18-113.88,64.15-51.78,124.14-104,160.32-136.14l-30.4-19.23H6355.85l13.21,116.91Zm-404.8,0h312.19l-110.35-136.41Zm-1718.22,0H4970c15.32-38.1,32.27-86.23,33.47-105.19,2.3-36.15-25.88-130-50.25-199.09-50,21.43-148.1,64.75-250.68,117.35C4566.56,2081.85,4465.23,2146.2,4407.2,2199.05Zm-944.55,0h562.79c-58-52.85-159.36-117.2-295.34-186.93-102.58-52.6-200.64-95.92-250.68-117.35-24.37,69.12-52.55,162.94-50.25,199.08C3430.37,2112.81,3447.32,2161,3462.65,2199.05Zm-1467.61,0h312.19l-201.85-136.41Zm-196.53,0h103.92l161.15-199.21,13.21-116.91H1420.33l-30.4,19.23c36.18,32.1,96.17,84.36,160.32,136.14,59.77,48.24,111.31,86.55,153.18,113.88C1771.77,2196.79,1794.62,2199.05,1798.51,2199.05Zm-321,0H1644c-39.86-27.24-86.58-62.44-139.21-104.93-75.3-60.78-144.9-122.17-178.14-151.92L1309,1953.35v245.7h166.93C1476.43,2199,1477,2199,1477.46,2199.05Zm-419.19,0H1237V1998.9l-137.09,86.71c-.46.31-.92.6-1.39.88L920.58,2199.05h137.69Zm1078.12-202.36,257.81,174.24,24.92-288H2149.25Zm3877.13-113.76,24.92,288,257.81-174.24-12.86-113.76Zm1402,169.89,184.76,116.87V1911.37ZM832.33,1911.39v258.29l184.74-116.86Zm4630.34,100.13,104.3,149.3,116.37-277.89H5397.08c9.75,12.14,18.45,23.68,23.45,31.92C5433.7,1936.54,5455.43,1992.5,5462.67,2011.52ZM2749.3,1882.93l116.37,277.89,104.3-149.3c7.24-19,29-75,42.14-96.67,5-8.24,13.7-19.78,23.45-31.92Zm1711,0-60.69,228.66q22.51-17.39,49.49-35.73c58.51-39.78,132.87-82.86,221-128,46.61-23.9,92.3-45.91,133.14-64.9Zm-831,0c40.84,19,86.53,41,133.14,64.9,88.13,45.17,162.49,88.25,221,128q27,18.36,49.49,35.73l-60.69-228.66Zm3550.16,20.59,171.18,108.27L7519,1882.93H7147l31.88,20.17ZM913.61,1882.93l168.32,128.86,171.39-108.41c.31-.21.62-.4.93-.59l31.39-19.86h-372Zm6469.14-72h141.54l76-151v-165.1H7404l-35.29,230Zm-349.54,0H7309.8l-11.17-68.49-69.57-68.33c-15.69,4-39,9.8-64.61,15.35-95.4,20.69-124.24,16.87-133.72,15.62-28.57-3.78-72.21-24.87-102.88-40.63l11.69,87Zm-647.07,0h512.72l-152.46-96.78a36.3,36.3,0,0,1-10.75-10l-138.14-184.69Zm-394.75,0H6221.9l-350.41-316.12H5734.13l68.92,84.68.46.57Zm-226.39,0h133.56l-104.44-128.34Zm-345.1,0h271.27l1.63-7.18c-14.22-7.7-33.95-18-55.16-28.07-74.64-35.36-97.54-34.26-99.91-34-7,.72-35.81,7.59-113.43,65.95Zm-346,0h199.73l-39.48-169.59c-14.77,22.43-30,47.65-41.39,67.64a36,36,0,0,1-9.34,11.17Zm-611.46,0h387.06l-439.95-277.47Zm-879.27,0h387.05l52.89-277.47Zm-424.13,0h199.72l-109.46-90.73a36.25,36.25,0,0,1-5.26-5.11,35.76,35.76,0,0,1-4.13-6.1c-11.35-20-26.63-45.21-41.4-67.65Zm-417.56,0h271.28l-4.77-3.6c-77.36-58.11-106.1-65-113.07-65.67-2.36-.24-25.26-1.34-99.91,34-21.21,10-40.94,20.37-55.16,28.07Zm-207.39,0h133.56l-29.12-128.33Zm-323.34,0h230.51l187.8-230.76.57-.71,68.9-84.65H2561.15Zm-677,0h512.73l-211.38-291.42L1697,1704.2a35.55,35.55,0,0,1-4.89,5.54,35.12,35.12,0,0,1-5.84,4.39Zm-410.93,0h276.59l93.66-59.46,11.69-87c-63.52,32.62-89.14,38.81-102.89,40.63-9.47,1.25-38.31,5.07-133.71-15.62-25.59-5.55-48.92-11.32-64.61-15.35L1134,1742.44Zm-214.5,0h141.54l14-86.09-35.29-230H832.33v165.1Zm3574.88-316.12,487.94,307.75,151.69-125.74-22.67-182Zm-1173.45,182,151.69,125.74,487.94-307.75H3332.46Zm2669.19-182,331,298.57,216.55-298.57Zm-4072.81,0,216.55,298.57,331-298.57Zm986.91,174.76a90.87,90.87,0,0,1,9.17.46c19.94,2,44.45,11.7,74.94,29.53,21.68,12.67,46.72,29.66,74.43,50.5,14.57,11,28.3,21.77,40.33,31.51l47.73-205.1c-46.79-26.41-145.26-61.92-207.6-81.66H2791.35l-95.1,116.85L2723.33,1731c12-6.25,25.79-13.22,40.4-20.15C2836.78,1676.17,2872.62,1669.57,2893.07,1669.57Zm2399.9-93.1,47.74,205.1c12-9.74,25.76-20.56,40.32-31.51,89.33-67.17,128-77.84,149.38-80,18.55-1.9,53.08.26,138.51,40.79,14.6,6.93,28.41,13.89,40.39,20.15l27.08-119.33-95.09-116.84H5500.57C5438.23,1514.55,5339.77,1550.06,5293,1576.47Zm1496.87,80,70.28,44.61-13.05-97.19c0-.23-.07-.46-.1-.7l-14.55-108.36H6669Zm-5204.25-52.66-13.07,97.27,70.28-44.61,120.9-161.64H1600.22l-14.56,108.44C1585.64,1603.43,1585.61,1603.61,1585.59,1603.79Zm5679.75,5,42,41.26,23.81-155.26H7129.21l133.25,111.38.24.2A35.53,35.53,0,0,1,7265.34,1608.81Zm-6163.85-114,23.82,155.26,41.94-41.21a35.9,35.9,0,0,1,3-2.69l133.22-111.36Zm169,121.42c50,11.23,101.56,20.17,122,17.47,19.18-2.53,76.14-30.2,124.16-57.31l11-81.58H1415.7ZM6916,1576.32c11,6.18,27,15,44.23,23.83,55.86,28.71,75.3,32.94,79.93,33.55,20.46,2.71,72-6.24,122-17.47L7017,1494.81H6905.07ZM3203.84,1533c13.18,11,29.23,31.49,44.62,53.67l11.44-91.84H3137.32c29.58,13.58,51.11,25.82,65,37Q3203.12,1532.37,3203.84,1533Zm1968.91-38.17,11.44,91.84c15.38-22.19,31.43-42.69,44.61-53.67.48-.41,1-.82,1.47-1.2,13.95-11.15,35.47-23.4,65-37Zm2233.7-72h143.31l0,0c-36.49-60.2-41.92-86.25-42.84-100.6-3-46.64,27.35-106.94,56.67-165.26,10.39-20.68,20.21-40.21,27.26-56.8,8.49-19.94,9.39-27.49,9.48-29.14-.51-2.11-7.77-25.37-82.72-73.06-37.28-23.72-74.18-42.49-86.21-48.46a36,36,0,0,1-8.24-4.35l-.42-.3c-.26-.17-.5-.34-.75-.52l-64.67-45.14-34.23,169.64,73.29,236a36.17,36.17,0,0,1,1.17,4.47,35.41,35.41,0,0,1,.63,5Zm-304.59,0h232.38l-7.62-99.83-55.79-179.63c-11.17,13.53-20.73,25.78-24.88,32.61-5.73,9.45-13.48,29.47-20.32,47.13-6.58,17-12.81,33.1-19,45.09-.27.55-.56,1.09-.85,1.62C7186.81,1305.39,7138.11,1373.56,7101.86,1422.81Zm-215.48,0h89.53l-85.62-204.44c-.14-.33-.28-.65-.41-1l-20.11-48c-.63.88-1.26,1.75-1.88,2.63-17.74,24.66-42,58.43-43.44,74.92-.53,6.27.27,32.81,33,111.5C6868.05,1383.76,6878.89,1407.16,6886.38,1422.81Zm-250.07,0H6807c-5-11.12-10.4-23.42-15.77-36.29-37.88-90.88-40.11-126.68-38.49-145.7,3.08-36.29,29.14-72.52,56.73-110.87,5.58-7.75,11.23-15.61,16.49-23.26H6663.66Zm-685.68,0h546.85L6138.93,1124.6Zm-273,0h187.82l199.61-316.12H5435.26c30.59,31.66,69.36,77.32,119.34,143.33C5608.54,1321.25,5656.85,1391.9,5677.66,1422.81Zm-181.79,0h94.62c-24.13-34.91-57.55-82.14-93.49-129.59-118.08-155.91-163.07-182.16-174-186.53H4629.13l513.06,316.12h353.68Zm-1136.48,0h645.54l-513.06-316.12H4252.33v316.12h107.06Zm-284.77,0h105.7V1106.69H3940.77l-513.05,316.12h646.9Zm-1136.21,0h352.05l513.05-316.12H3109.69c-11,4.37-56,30.62-174,186.52-36,47.47-69.36,94.69-93.49,129.6h96.25Zm-371.25,0H2755c20.81-30.91,69.12-101.56,123.05-172.79,50-66,88.75-111.67,119.35-143.33H2367.56Zm-632,0H2482L2293.72,1124.6Zm-309.5,0h170.66L1769,1106.69H1606.71c5.26,7.65,10.91,15.51,16.49,23.26,27.59,38.35,53.65,74.58,56.73,110.88,3.38,39.71-20.35,102.16-38.49,145.69C1636.07,1399.39,1630.69,1411.69,1625.67,1422.81Zm-168.93,0h89.52c7.49-15.65,18.34-39,28.89-64.39,32.77-78.69,33.57-105.23,33-111.49-1.4-16.5-25.69-50.27-43.44-74.93-.62-.88-1.25-1.75-1.88-2.63l-20.12,48c-.12.32-.26.64-.39.95Zm-358.34,0h232.38c-36.24-49.25-84.94-117.41-103.88-153-.3-.54-.59-1.08-.86-1.63-6.22-12-12.44-28.08-19-45.09-6.84-17.66-14.58-37.68-20.32-47.13-4.14-6.84-13.71-19.08-24.88-32.62L1106,1323Zm-215.51,0h143.3l8.29-108.61a37.43,37.43,0,0,1,.57-4.67,35.89,35.89,0,0,1,1.24-4.77l73.28-236-34.23-169.63-64.69,45.15-.72.51-.43.3a36.17,36.17,0,0,1-8.23,4.35c-12,6-48.91,24.72-86.22,48.46-74.94,47.69-82.2,71-82.71,73.06.09,1.65,1,9.2,9.48,29.15,7,16.58,16.87,36.11,27.26,56.79,29.31,58.32,59.63,118.62,56.66,165.25-.91,14.35-6.34,40.4-42.84,100.61Zm958.36-316.12,24.26,280.41,337.16-280.41H1841.25Zm4388.73,0,337.15,280.4,24.26-280.4H6230Zm-4913.69,171c22.18,33.29,52.22,74.93,77.45,109.12L1450.2,1252ZM6982.44,1252l56.47,134.84c25.23-34.19,55.26-75.83,77.44-109.12Zm617.89-5.85c-12.7,28.28-22.6,55.36-21.57,71.44,0,.56,1,12.45,21.57,49.07Zm-6768,0v120.44c20.53-36.59,21.52-48.47,21.56-49C854.91,1301.54,845,1274.48,832.33,1246.21Zm365.48-171.84c18.07,21,40.94,48.59,50.44,64.25,9,14.87,17.61,37,25.91,58.48,1.86,4.82,3.74,9.68,5.59,14.35l203.84-39.16,33.21-79.3a110.52,110.52,0,0,1-4.12-13.66c-.15-.62-.29-1.24-.41-1.87-3-14.34-3.22-32.55-.72-55.21-13.21-7.09-31.43-16.53-51.09-25.7-68.33-31.89-91.13-31.53-95-31.13-7,.72-35.81,7.59-113.43,65.94C1231.37,1046.89,1212.3,1062.31,1197.81,1074.37Zm5751.24,97.92,203.84,39.16c1.85-4.67,3.73-9.53,5.59-14.35,8.3-21.44,16.89-43.61,25.92-58.49,9.5-15.66,32.37-43.24,50.44-64.24-14.6-12.14-33.83-27.69-54.58-43.28-77.36-58.11-106.11-64.95-113.07-65.67-3.88-.39-26.68-.76-95,31.13-19.66,9.17-37.88,18.61-51.09,25.7,2.5,22.69,2.25,40.91-.73,55.25-.12.61-.25,1.21-.39,1.81a110.89,110.89,0,0,1-4.13,13.68Zm-242.69-137.6H6850c-.64-6.87-1.71-15.17-3.41-25.17-.09-.46-.16-.92-.23-1.39-6.21-36-17.64-77.81-27.78-111.34Zm-323.9,0h184.4L6417.71,787.63Zm-234.1,0h161.38l40.48-283.77L6061,918.64Zm-819.6,0h729.49L5979.43,930c-.21-.27-.42-.54-.62-.82L5820.33,718.54h-514.8l-647.64,316.15h670.87Zm-871.27,0h36.27L5141.4,718.54h-724c6.32,9.18,13,19.05,19.66,29.33,58.87,90.38,67.19,128.62,68.32,149.51.9,16.65-2.22,47.35-39.63,121.37C4463,1024.22,4460.2,1029.56,4457.49,1034.69Zm-241.16,0h158.95c7-12.24,16.8-29.81,26.38-48.81,31.93-63.27,31.9-82.61,31.8-84.6-.38-6.89-5.56-35.43-56.51-113.74-18.44-28.34-36.93-53.95-48.07-69H4103.76c-11.14,15.05-29.62,40.66-48.07,69-51,78.31-56.13,106.85-56.5,113.74-.11,2-.14,21.42,32,85,9.55,18.9,19.22,36.28,26.18,48.41Zm-277.44,0h36.26c-2.7-5.13-5.47-10.47-8.23-15.94-37.4-74-40.53-104.72-39.63-121.37,1.06-19.48,9-43.82,24.33-74.4,10.91-21.78,25.71-47.05,44-75.11,6.69-10.28,13.34-20.15,19.66-29.33h-724Zm-833.49,0h669.35L3127.11,718.54h-514.8L2453.8,929.18c-.18.24-.36.49-.55.72l-78.85,104.79h731Zm-982.49,0h161.38l87.33-116.05-289.2-167.72Zm-257.13,0h184.4l-35.25-247.06Zm-283.13,0h143.64l-112.23-137.9c-10.13,33.5-21.55,75.27-27.76,111.26q-.12.78-.27,1.56C1584.35,1019.57,1583.28,1027.84,1582.65,1034.69ZM6460.1,718.54,6635,1008.28l169.21-207.92.57-.7,66-81.12Zm-4831.59,82,169.11,207.79,174.92-289.74H1561.83l65.91,81C1628,799.85,1628.26,800.17,1628.51,800.49Zm-488.78,53.73L1170,1004.08c11.66-9.41,24.84-19.78,38.79-30.27,89.33-67.16,128-77.83,149.37-80,38.63-4,94.56,19.64,133.28,37.73,12.14,5.67,23.67,11.38,33.94,16.64,11.25-46.78,26-93,34.36-118.17L1469,718.54H1334.11Zm5925.12,39.09a93.92,93.92,0,0,1,9.67.49c19.93,2,44.45,11.7,74.94,29.52,21.67,12.67,46.71,29.66,74.43,50.49,13.95,10.49,27.13,20.86,38.79,30.27l30.23-149.86L7098.54,718.54h-134.9L6872.94,830c8.4,25.17,23.11,71.38,34.36,118.17,10.28-5.26,21.8-11,33.95-16.64C7009.73,899.52,7044.56,893.31,7064.85,893.31ZM7461.3,884c11.25,5.54,55.43,27.74,99,55.82q22.22,14.33,40.05,28V718.54h-376l128.5,89.69c.43.29.85.58,1.26.88Zm-6629-165.41v249.2q17.79-13.62,40-28c43.57-28.09,87.73-50.28,99-55.82l107.22-74.84.6-.43,129.15-90.14Zm5078.11,0,107,142.16,245.11-142.16Zm-3740.33,0L2415.22,860.7l107-142.16Z" transform="translate(-760.32 -646.54)"/><path class="cls-1" d="M7636.33,7207.54h-6840a36,36,0,0,1-36-36V5668.38c0-.57,0-1.13,0-1.7V4540.27c0-.5,0-1,0-1.52v-750.7a36,36,0,0,1,33.26-36.41c1.1-.09,2.21-.12,3.31-.1H2392.19q.81,0,1.62,0h3645q.81,0,1.62,0H7636.32a36,36,0,0,1,36,36v3384A36,36,0,0,1,7636.33,7207.54Zm-408.94-72h372.93V6896.16q-18,13.35-40.47,27.42c-43.63,27.26-87.76,48.74-99,54.08l-107.16,72.45c-.45.33-.91.64-1.38.94Zm-264.11,0h135.58l193.84-131.08-29.9-143.61c-11.8,9.24-25.18,19.44-39.35,29.76-89.24,65-127.8,75.33-149,77.43-38.28,3.8-93.84-18.88-132.3-36.27-12.48-5.64-24.38-11.36-35-16.63-11.1,44.61-25.51,88.6-33.95,113.17Zm-502.1,0h408.07l-64-76.13c-.29-.33-.57-.66-.84-1L6635,6856.65Zm-549.32,0h346.9l-241.5-135.68Zm-606.61,0h515.44l158.4-203.91c.24-.32.48-.63.73-.94l77-99.15H5328.73c-.49,0-1,0-1.46,0H4662.41Zm-886.61,0h718.2l-642.85-304h-35.61c2.36,4.34,4.74,8.82,7.13,13.4,37.62,72.13,40.75,102.25,39.84,118.62-2.4,42.76-40.3,103.68-68.61,145.77C4430.6,7118.46,4424.49,7127.27,4418.64,7135.53Zm-202.32,0h112.92c11.13-14.57,29.59-39.34,48-66.76,52-77.43,55.95-104.58,56.21-109.24,0-.74.65-19-31.58-80.91-9.54-18.31-19.26-35.25-26.27-47.09H4057c-7,11.84-16.73,28.78-26.27,47.09-32.23,61.89-31.62,80.17-31.58,80.91.26,4.66,4.2,31.81,56.21,109.24,18.42,27.42,36.88,52.19,48,66.76Zm-920.52,0H4014c-5.85-8.26-12-17.07-18.1-26.21-59.1-87.9-67.46-125.29-68.61-145.76-.91-16.38,2.22-46.5,39.84-118.63,2.39-4.58,4.77-9.06,7.13-13.4h-35.61Zm-683.85,0h515.44l642.84-304H3105.38c-.48,0-1,0-1.46,0H2375.8l77,99.16q.36.45.72.93Zm-438.07,0h346.9l-105.4-135.68Zm-610.49,0h408.07l-173.79-278.88-169.58,201.87c-.21.26-.42.51-.64.76Zm-229.6,0h135.57l90.08-107.23c-8.44-24.57-22.84-68.56-34-113.16-10.57,5.25-22.47,11-35,16.62-80.31,36.31-114,38.1-132.29,36.27-19.81-2-44.22-11.29-74.63-28.51-21.67-12.27-46.71-28.73-74.42-48.92-14.17-10.32-27.55-20.52-39.34-29.76l-29.91,143.61Zm-501.46,0h372.92l-125-84.49-1.35-.91-107.17-72.47c-11.22-5.34-55.33-26.81-99-54.08q-22.47-14-40.47-27.42Zm5229.59-193.18L6350,7104.23l-40.15-272.7H6148ZM2122.76,6831.53l-40.15,272.7,288.11-161.88-86.09-110.82Zm4259.89,0,35,237.71,148.13-237.71Zm-4515.8,0L2015,7069.24l35-237.71Zm4841,0,110.77,131.87c10.11-32.39,21.5-72.76,27.71-107.53.08-.55.18-1.1.29-1.64,1.55-8.93,2.57-16.43,3.21-22.7Zm-5121.63,24.36c6.2,34.76,17.59,75.12,27.7,107.51l110.77-131.87h-142c.64,6.27,1.66,13.76,3.21,22.68Q1586.13,6855.05,1586.27,6855.89Zm-576,60.91,65.17,44.06,26.93-129.33H866.33c11.88,9.44,27.89,20.74,49.42,34,37,22.73,73.26,40.58,85.13,46.29a36,36,0,0,1,8.17,4.17l.43.3Zm6319.94-85.27,26.93,129.33,65.16-44c.28-.2.57-.4.87-.59l.4-.28a36.27,36.27,0,0,1,8.15-4.16c11.87-5.7,48.14-23.57,85.15-46.29,21.53-13.22,37.53-24.52,49.42-34Zm-6079.86,0,1.57,1.15c77.45,56.36,106.37,63,113.39,63.71,3.89.37,26.76.76,94.61-29.82,19.74-8.9,38.1-18.1,51.48-25q-.57-5.16-.93-10Zm5670.83,10c13.27,6.9,31.53,16.05,51.47,25,67.86,30.59,90.73,30.21,94.63,29.83,7-.7,35.94-7.35,113.38-63.71l1.57-1.15H6922.14Q6921.78,6836.38,6921.21,6841.53Zm414.1-82h251.93c-6.58-14.09-14.82-30-23.47-46.63-29.43-56.73-59.87-115.39-56.86-161.15.91-13.95,6.27-39.07,41.78-96.21H7406.37l-8.22,104.22a34.59,34.59,0,0,1-.59,4.72,35.73,35.73,0,0,1-1.32,5Zm-413.05,0h284.07c-9-11-17-21.27-21.67-28.77-9.1-14.53-17.71-36.08-26-56.92-1.83-4.56-3.67-9.18-5.48-13.61l-204.41,38Zm-258.69,0h161.1c-4.81-6.71-9.9-13.56-14.92-20.33-27.72-37.33-53.91-72.59-57-108.3-3.43-39,20.41-99.78,38.64-142.14,5.05-11.73,10.11-23,14.87-33.22H6636.42Zm-322,0h249.72l-24.08-269.7-334.74,269.7h109.1Zm-904.38,0H6064l-198.14-304h-188.5c-20.84,30-69.13,98.4-123,167.38C5505.49,6685.32,5467.41,6729,5437.18,6759.53Zm-804.55,0h690.5c10.9-4.17,55.94-29.43,174.2-180.68,35.16-45,67.9-89.73,91.9-123.31h-93.36c-.54,0-1.09,0-1.63,0H5141.91Zm-236.38,0h95.9l509.28-304h-642c-.46,0-.93,0-1.39,0H4252.33v304h143.92Zm-358.91,0h143v-304H4074.63c-.47,0-.93,0-1.39,0h-642l509.28,304h96.85Zm-927.82,0H3800l-509.28-304H2938.4c-.55,0-1.09,0-1.63,0h-93.35c24,33.58,56.74,78.34,91.9,123.31C3053.57,6730.11,3098.62,6755.36,3109.52,6759.53Zm-740.83,0h626.77c-30.22-30.58-68.3-74.21-117.08-136.61-53.92-69-102.22-137.4-123.05-167.38H2566.82Zm-276.51,0h108l-334.75-269.7-24.08,269.7h250.82Zm-484.21,0h161.1l27.15-304H1626.41c4.76,10.26,9.82,21.49,14.87,33.22,38.06,88.45,40.28,123.49,38.64,142.15-3.12,35.7-29.31,71-57,108.29C1617.87,6746,1612.78,6752.82,1608,6759.53Zm-381.66,0h284.07l-26.48-61.27-204.41-38c-1.81,4.43-3.65,9.05-5.48,13.61-8.32,20.84-16.93,42.39-26,56.92C1243.28,6738.26,1235.33,6748.57,1226.31,6759.53Zm-380.9,0h251.92l-60.94-190.09a37.57,37.57,0,0,1-1.25-4.63,37.14,37.14,0,0,1-.66-5.09l-8.21-104.18H884c35.51,57.15,40.86,82.27,41.78,96.22,3,45.75-27.43,104.41-56.87,161.14C860.23,6729.55,852,6745.44,845.41,6759.53Zm1092.23-304,356.2,287,187-287Zm4014.12,0,187.05,287,356.19-287ZM1106,6550.7l55.72,173.83c11.33-13.27,21.06-25.31,25.24-32,5.66-9,13.38-28.36,20.19-45.41,6.6-16.52,12.84-32.14,19.1-43.83.28-.55.57-1.08.87-1.61,18.68-34,66.22-98.6,102.3-146.15H1098.49Zm6100.39,52.6c6.26,11.69,12.5,27.31,19.1,43.83,6.81,17.05,14.53,36.37,20.19,45.4,4.18,6.68,13.91,18.72,25.24,32l55.72-173.83,7.51-95.16H7103.23c36.07,47.54,83.6,112.12,102.28,146.14C7205.82,6602.21,7206.11,6602.75,7206.39,6603.3Zm-5663.8,49.28,20.22,46.77,2.28-3.07c17.62-23.74,41.76-56.25,43.11-71.66.37-4.24.53-29.26-32.88-107-10.49-24.4-21.27-46.94-28.74-62.08h-89.16l84.78,196.13Zm5343.47-197c-7.47,15.14-18.25,37.68-28.73,62.08-33.42,77.74-33.26,102.76-32.89,107,1.35,15.42,25.49,47.93,43.11,71.67l2.28,3.07L6890,6652.6c.13-.32.27-.64.41-1l84.78-196.11Zm714.26,53.82c-20.35,35.07-21.53,46.59-21.57,47.13-.38,5.72.82,19.77,13.06,49.37,2.59,6.28,5.46,12.73,8.51,19.3Zm-6768,0v115.77c3-6.56,5.91-13,8.5-19.28,12.24-29.6,13.44-43.65,13.06-49.39C853.85,6555.94,852.67,6544.43,832.33,6509.37Zm485,84.67,132.12,24.58-55.67-128.79C1369,6522.38,1339.48,6562,1317.35,6594Zm5721.5-104.21-55.68,128.79L7115.29,6594C7093.16,6562,7063.65,6522.38,7038.85,6489.83Zm365-106.29h196.48v-304H7382.59l-13.85,82.29Zm-272.18,0H7331L7307.42,6235,7265,6275.39a36.32,36.32,0,0,1-2.88,2.54l-.08.07Zm-226.43,0h112l143-115.83c-49.44-10.67-100-19.07-120.26-16.47-21.15,2.71-80.56,31.67-124.13,55.46Zm-234.9,0h162.21L6847,6279.27l.06-.46,12.88-92.9-70.51,43.37Zm-689.12,0h543.92L6310,6096.2Zm-245.54,0h136.13l347.84-304h-228.6l-187.88,223.65c-.16.2-.33.4-.5.59Zm-235.28,0h141.24L5736.21,6271l-26.74-114.17c-12.11,6.12-26.12,13-40.95,19.8-85.23,39.17-119.58,41.26-138,39.44-19.8-2-44.21-11.29-74.63-28.51-21.67-12.27-46.7-28.73-74.42-48.91-14.79-10.78-28.72-21.42-40.89-31l-47.35,197.08C5340.37,6330.3,5438.34,6364.51,5500.4,6383.54Zm-327.49,0h117.63c-26.87-12.21-46.67-23.29-59.78-33.43-.55-.41-1.08-.82-1.59-1.26-13.32-10.77-29.53-30.89-45-52.59Zm-686.28,0h613.69l22.42-174.43-151.51-121.67Zm-270.3,0h112.73l66.62-338.65-100.56-367.06c-.05-.16-.09-.33-.14-.5a1.21,1.21,0,0,1,0-.18l-78.61-260.83-78.61,260.84-.19.67L4037,6044.89l66.62,338.65Zm-884,0H3946l-484.6-296.1L3309.9,6209.11Zm-190.23,0h117.64l-11.23-87.29c-15.51,21.71-31.73,41.84-45.05,52.61-.51.43-1,.85-1.57,1.25C3188.77,6360.25,3169,6371.33,3142.1,6383.54Zm-351.09,0h141.23c62.06-19,160-53.24,207.17-78.82l-47.35-197.08c-12.16,9.55-26.09,20.19-40.89,31-89.24,65-127.8,75.31-149,77.42-18.42,1.83-52.77-.27-138-39.44-14.83-6.82-28.84-13.68-40.95-19.81L2696.43,6271Zm-230.18,0H2697l-67-79.76c-.17-.19-.33-.39-.5-.59l-187.88-223.65H2213Zm-653.33,0h543.92l-328.78-287.35Zm-307.41,0H1762.3l-119.1-154.26-70.51-43.37,12.86,92.79c0,.23.07.46.1.69Zm-184.7,0h112l-10.65-76.85c-43.58-23.78-103-52.74-124.14-55.45-20.28-2.6-70.82,5.8-120.25,16.47Zm-313.7,0H1301L1170.6,6278l-.55-.45c-.79-.65-1.56-1.34-2.3-2.07L1125.23,6235Zm-269.36,0H1028.8l35.12-221.71-13.87-82.29H832.33Zm5555.15-304,210,280.52L6736,6180.72a36.33,36.33,0,0,1,10.83-9.75l140.29-86.27.32-.2,8.07-5ZM1696.67,6180.71l138.47,179.35,210-280.52h-508l8,4.91.48.3L1685.82,6171a35.62,35.62,0,0,1,5.91,4.32A36.13,36.13,0,0,1,1696.67,6180.71Zm2765.58-101.17-52.45,266.57,436.28-266.57Zm-875.69,0,436.28,266.57-52.45-266.57Zm1606,96.66c11.43,19.51,26.84,44.16,41.7,66l39.08-162.64H5076.38l106.54,85.55a36,36,0,0,1,5.39,5.09A35.56,35.56,0,0,1,5192.51,6176.2Zm-2033.15-96.66,39.06,162.59c14.1-20.64,29.13-44.43,41.7-65.9a35.94,35.94,0,0,1,9.59-11.13l106.55-85.56Zm-1774.85,99.22a123.14,123.14,0,0,1,17.25,1.06c7.9,1,31.88,4.09,102.86,39.41l-11.4-82.18-93.51-57.51H1123.07l10.83,64.3,69.44,66.09c15.69-3.91,39.23-9.56,65.08-15C1332.31,6181.52,1366.24,6178.76,1384.51,6178.76ZM6939.42,6137l-11.4,82.19c71-35.33,95-38.4,102.86-39.41,9.43-1.21,38.12-4.88,133.34,15.12,25.85,5.43,49.39,11.08,65.08,15l69.45-66.09,10.83-64.3H7032.93Zm-4403.79-57.5,103,122.58,28.71-122.58Zm3229.7,0L5794,6202.12l103-122.58Zm-394.4-39.77c14.42,11.6,33.14,26.23,53.3,40.91,77.44,56.35,106.37,63,113.4,63.7,3.91.4,27.11.62,100.41-33,20.89-9.59,40.33-19.43,54.51-26.85l-7.11-30.34-42.72-110.75-189.26-36c-9.77,23.84-23.69,56.14-33.2,71.32C5410.94,5993.64,5388.82,6019.58,5370.93,6039.77ZM2740.1,6084.51c14.17,7.42,33.62,17.26,54.5,26.85,73.31,33.64,96.51,33.41,100.42,33,7-.69,35.95-7.35,113.4-63.7,20.15-14.67,38.87-29.31,53.3-40.91-17.89-20.19-40-46.13-49.34-61-9.51-15.18-23.43-47.48-33.2-71.32l-189.26,36-42.72,110.75Zm4612.63-77H7523.8l-172.62-123.05L7179,5990c-.34.21-.69.43-1,.63l-27.52,16.87h201.08Q7352.1,6007.53,7352.73,6007.54Zm-996.73,0h656.59l28.9-17.71c-36.33-31.2-95.48-81.06-158.67-130.47-189.69-148.31-240.44-155.83-248.69-155.83H6529.88L6369,5896.22Zm-342.37,0h269.88l12.62-108.22-257.76-168.77Zm-223.7,0h151.42l29.39-329.16-155.27-201.11L5745,5433.91l12.86,92.73c0,.27.08.54.11.81l17.89,129.06c6.38,12.5,22.16,44.05,37.74,80.25,38.06,88.45,40.29,123.48,38.65,142.14-1.47,16.78-8.84,47.31-55.56,118.52C5794.4,6000.86,5792.15,6004.23,5789.93,6007.54Zm-764.14,0h242c-20.27-57.56-52.05-151.12-60.47-195.05-4.54-23.67-7.93-74.38-9.82-109H5047.9c12.47,32.28,25.82,71.74,27.43,96.23,2.08,31.74-8.63,83.52-32.76,158.3C5036.79,5976,5031,5992.93,5025.79,6007.54Zm-565.68,0h338.4c-39.5-17.86-83.31-38.36-128-60.54-88.12-43.76-162.47-85.49-221-124q-27-17.81-49.52-34.64Zm-826,0h338.41l60.05-219.2q-22.52,16.86-49.52,34.64c-58.5,38.53-132.85,80.26-221,124C3717.44,5969.18,3673.64,5989.68,3634.13,6007.54Zm-469.31,0h242c-5.18-14.61-11-31.54-16.78-49.48-24.13-74.78-34.84-126.56-32.75-158.31,1.61-24.48,15-63.94,27.42-96.22H3235.1c-1.89,34.58-5.28,85.29-9.82,109C3216.86,5856.42,3185.09,5950,3164.82,6007.54Zm-673.53,0h151.42c-2.22-3.31-4.47-6.68-6.72-10.12-46.72-71.21-54.09-101.74-55.56-118.51-3.42-39,20.42-99.79,38.65-142.15,15.58-36.21,31.36-67.75,37.74-80.25l17.9-129.15.09-.63,12.87-92.82-70.51,43.36L2461.9,5678.38Zm-342.16,0H2419l-24.74-277-257.76,168.77Zm-729.08,0h656.59l-13-111.32-160.89-192.69H1798.51c-8.25,0-59,7.52-248.69,155.83-63.19,49.41-122.34,99.27-158.66,130.47Zm-338.87,0h201.08l-27.54-16.88c-.34-.2-.67-.4-1-.61l-172.26-105.56L908.85,6007.54h171Q1080.53,6007.53,1081.18,6007.54Zm2381.17-304c-15.22,36.71-32,82.85-33.19,100.94-2.27,34.67,25.76,125,50.06,191.78,49.85-20.68,148.29-62.78,251.28-113.95,85.43-42.43,157.14-82.66,213.15-119.57,34.5-22.74,60.27-42.42,79.53-59.2Zm947.11,0c19.26,16.78,45,36.46,79.54,59.2,56,36.91,127.71,77.14,213.14,119.57,103,51.17,201.43,93.27,251.29,113.95,24.29-66.75,52.33-157.11,50-191.78-1.18-18.09-18-64.23-33.19-100.94ZM3035.88,5855.35c10.22,26.21,29.18,71.88,37.51,85.18,4.37,7,14.79,19.8,26.77,33.78,19.58-55.93,47.28-138.19,54.41-175.38,4.75-24.75,8.77-98.53,10.13-129.33L3135.14,5483l-42.48,40.43c-.87.85-1.78,1.66-2.72,2.42l-.2.15-182.9,148.11L3030,5844.89c.31.4.6.81.89,1.22a37.15,37.15,0,0,1,5,9.24ZM5267.94,5669.6c1.36,30.8,5.38,104.58,10.13,129.33,7.13,37.19,34.83,119.45,54.41,175.38,12-14,22.4-26.81,26.77-33.78,8.33-13.3,27.29-58.95,37.51-85.17a34.57,34.57,0,0,1,2.21-4.9h0v0a35.69,35.69,0,0,1,2.77-4.32c.27-.4.56-.8.85-1.18l123.19-170.84L5342.91,5526l-.59-.48c-.8-.65-1.56-1.34-2.3-2.07L5297.5,5483Zm2149.93,174,182.46,130.05V5731.81ZM832.33,5731.82v241.84l182.44-130Zm4870.59,167.6,26.59,68.94c2.37-3.52,4.77-7.13,7.18-10.79,40.78-62.22,43.61-82.82,43.8-85,.37-4.23.52-29.25-32.9-107-17.33-40.32-35.46-75.57-38.14-80.74a36.34,36.34,0,0,1-4.21-13.18l-16.22-117c-43.58-23.78-103-52.74-124.12-55.45-20.28-2.59-70.83,5.81-120.26,16.48l152.43,123.43a36.46,36.46,0,0,1,6.55,6.64c.54.72,1.06,1.46,1.55,2.22l0,.06h0a36.54,36.54,0,0,1,3.5,7.06l93.77,243.17C5702.64,5898.68,5702.79,5899.05,5702.92,5899.42ZM2723.18,5684.89c-2.7,5.21-20.81,40.44-38.13,80.73-33.42,77.74-33.27,102.76-32.89,107,.18,2.14,3,22.74,43.79,85,2.41,3.66,4.81,7.27,7.18,10.79l26.59-68.94.42-1.11,93.78-243.16a36.1,36.1,0,0,1,3.62-7.25l.05-.07h0c.51-.79,1.06-1.55,1.63-2.3a36,36,0,0,1,6.34-6.36L2988,5515.72c-49.43-10.67-100-19.07-120.25-16.48-21.15,2.71-80.55,31.67-124.13,55.45l-16.22,117a36,36,0,0,1-4.22,13.22Zm4068.56,18.64c39.09,26.06,84.59,59.36,135.68,99.31,75.57,59.1,145.4,118.78,178.51,147.5l17.72-10.86V5703.53H6956.72q-.77,0-1.53,0ZM1309,5939.48l17.72,10.86c33.1-28.72,102.93-88.4,178.5-147.5,51.09-39.95,96.59-73.25,135.68-99.31H1477.45q-.77,0-1.53,0H1309Zm-209.54-128.41L1237,5895.36V5703.53H924l174.14,106.72C1098.57,5810.52,1099,5810.79,1099.46,5811.07Zm6096.2-107.54v191.83l137.5-84.26c.46-.3.93-.59,1.4-.87l174.11-106.7Zm-4328.26,39-47,121.83L2939,5841.79Zm2626.24,99.29,118.58,22.54-47-121.83Zm634.92-138.26,198.82,130.18,108.7-130.18Zm-4132,0,108.69,130.18,198.82-130.18Zm4988-72h599.63c-11.49-29.83-27.47-70.54-45.3-113.59-47.06-113.66-74.87-166.19-90.23-190.41H6913.53Zm-471.23,0h397.29l-71-304H6379.22l-287.72,304h421.82Zm-1490.18,0h177.93l35.12-221.71-13.86-82.29H5078.18c-31.06,49.55-69.63,118.15-74.14,143.26C4999.46,5496.28,5011.13,5572.25,5023.14,5631.53Zm-637.16,0h563.83c-2.36-12.15-4.93-26.05-7.39-40.68-16-95.13-10.92-123.47-9.25-132.78,1.6-8.92,6.48-36.06,52.36-116,2.86-5,5.7-9.87,8.48-14.58H4589.87c-15.93,6.93-60.1,38.37-139.82,180.13C4424.31,5553.44,4401.74,5598.63,4386,5631.53Zm-903.14,0h563.82c-15.76-32.9-38.33-78.09-64.07-123.87-79.72-141.76-123.89-173.2-139.82-180.13H3438.63c2.78,4.71,5.62,9.59,8.48,14.58,45.88,79.9,50.76,107,52.36,116,1.67,9.31,6.76,37.65-9.25,132.78C3487.76,5605.48,3485.19,5619.38,3482.84,5631.53Zm-251.27,0H3409.5c12-59.28,23.68-135.25,19.1-160.73-4.51-25.16-43.08-93.74-74.14-143.27H3210.31l-13.86,82.29Zm-1311.68,0h421.26l-287.73-304H1593.05l-71,304h397.86Zm-1071.47,0h599.67l71-304H983.92C945.94,5387,884.5,5537.82,848.42,5631.53ZM5869,5428.73l141.67,183.5,269.45-284.7H6251c-.48,0-.95,0-1.43,0H6105.43c-.54,0-1.09,0-1.63,0H5709.43L5858.1,5419a36.39,36.39,0,0,1,10.86,9.77Zm-3716.4-101.2L2422,5612.23l141.69-183.52a36.36,36.36,0,0,1,10.82-9.74l148.69-91.44H2328.84c-.54,0-1.09,0-1.63,0H2183.12c-.48,0-.95,0-1.42,0Zm2112.2,0,72.32,240c14.07-28.27,31.1-61.11,49.94-94.65,30.37-54,59.16-98.59,85.59-132.41q5.25-6.72,10.4-12.91Zm-315.13,0q5.14,6.2,10.4,12.91c26.43,33.82,55.22,78.37,85.59,132.41,18.84,33.54,35.87,66.38,49.94,94.65l72.32-240Zm3581.84,0c19.29,36.68,42.12,86.66,68.85,150.64V5327.53Zm-6699.14,0v150.64c26.73-64,49.56-113.95,68.85-150.64Zm4724.46,99.24a123,123,0,0,1,17.25,1.06c7.9,1,31.88,4.08,102.86,39.4L5665.5,5385,5572,5327.53H5295.34l10.84,64.31,69.44,66.09c15.69-3.91,39.23-9.55,65.08-15C5504.58,5429.53,5538.53,5426.77,5556.79,5426.77ZM2767.14,5385l-11.39,82.19c71-35.32,95-38.39,102.85-39.4,9.44-1.21,38.13-4.88,133.35,15.12,25.84,5.43,49.38,11.07,65.07,15l69.45-66.09,10.83-64.31H2860.65Zm4716.72-129.51h116.47v-304l-322.81-.15-84.85,80.8c26.45,17.42,63.78,42.46,103.26,70.35C7386.23,5166.36,7449.31,5217.72,7483.86,5255.53Zm-525.7,0h420.36c-71.43-59.78-177.49-132.09-239.35-172.37Zm-594.29,0h292l-211.46-73.85a36,36,0,0,1-19.86-17l-78.43-146.17-51.32,237h69Zm-233.26,0h90.55L6281.7,4976l-3.33,2.09c-20.79,13.16-38.24,26.36-41.34,28.73a36.12,36.12,0,0,1-15.17,7.14c-4.54,1-41.61,9.05-85,16.2-33.34,5.5-58.54,8.48-77.62,10Zm-542.42,0h466.57l-73.62-222.08c-17.55-6.08-46.72-18.69-95-45.86-21.53-12.1-41-23.77-54-31.77l-473.34,220.86Zm-334.73,0h113.19l-115.42-39.66-.41-.14-228.49-78.53L4904,5255.53h349.5Zm-611.94,0h160.6l184.64-184.59c.36-.37.71-.72,1.08-1.07l118.68-118.65-419.38.15c-.92,28.66-3.06,71.75-8,119.2C4671.14,5147.47,4658.54,5209.35,4641.52,5255.53Zm-365.58,0h287.38c19.7-38.72,35.2-105.84,44.21-192.41,4.56-43.87,6.62-84.31,7.55-111.73l-334.08.13c3.89,6.44,7.88,13.13,11.86,19.89,43.81,74.53,47.4,92.28,47.36,105.17,0,10.83-.17,43.77-46.44,142.32C4287.72,5231.81,4281.62,5244.24,4275.94,5255.53Zm-406.62,0h287.39c-5.46-10.83-11.3-22.74-17.15-35.17-47-99.69-47.09-132.87-47.12-143.78-.06-13,3.62-31,48.52-107.15,3.59-6.08,7.18-12.1,10.69-17.91l-334.07-.13c.93,27.59,3,68.34,7.61,112.37C3834.2,5150,3849.68,5216.9,3869.32,5255.53Zm-238.8,0h160.6c-17-46.18-29.61-108.06-37.61-185-4.94-47.45-7.07-90.55-8-119.2l-419.39-.15,118.66,118.62c.38.37.76.74,1.12,1.13Zm-255.79,0h153.95L3410.31,5137.2l-227.78,78.28c-.59.23-1.2.43-1.81.62L3066,5255.53h308.74Zm-996.85,0h466.57l229.46-78.85-473.33-220.86c-13.07,8-32.51,19.67-54,31.77-48.31,27.17-77.48,39.78-95,45.86Zm-166.4,0H2302l71.41-215.42c-19.07-1.48-44.27-4.46-77.62-10-42.45-7-78.83-14.84-84.69-16.12a36.08,36.08,0,0,1-15.51-7.22c-3.06-2.34-20.52-15.55-41.34-28.73l-3.34-2.09Zm-142.43,0h68.76l-51.32-237-78.43,146.17a36,36,0,0,1-19.86,17l-211.45,73.85h292.3Zm-1014.93,0h420.36l-181-172.37C1231.61,5123.44,1125.55,5195.75,1054.12,5255.53Zm-221.79,0H948.78c34.55-37.81,97.63-89.17,187.94-153,39.47-27.89,76.8-52.93,103.25-70.35l-84.85-80.8-322.79.15ZM1323.14,5012l250.24,238.3,377.86-132,83.11-154.9c-19.59,5.64-44.6,13.81-76.42,25.57-52.4,19.37-98.62,39.49-104.61,42.11a35.94,35.94,0,0,1-22.61,2.58,36,36,0,0,1-20.87-12.94l-57.11-69.64-493.26.24,62.6,59.61C1322.43,5011.3,1322.79,5011.64,1323.14,5012ZM6481.4,5118.33l377.86,132L7109.49,5012c.36-.35.72-.7,1.09-1l62.59-59.61-493.26-.24-57.08,69.6a36,36,0,0,1-35.52,13,35.13,35.13,0,0,1-8-2.63c-6-2.62-52.2-22.74-104.61-42.11-31.82-11.76-56.83-19.93-76.42-25.58Zm-2316.85-39.47c.81,9.9,6.48,39.32,40,110.53,4,8.42,7.94,16.61,11.77,24.36,4-8.09,8.16-16.65,12.29-25.44,33.06-70.43,38.68-99.61,39.49-109.44-1.79-5.25-9.43-23.95-40.6-76.55-3.78-6.36-7.54-12.63-11.17-18.61-3.29,5.42-6.69,11.06-10.1,16.8C4174.15,5054.5,4166.36,5073.56,4164.55,5078.86ZM2760.55,4951,3172,5143l181.68-62.44-129.39-129.35-163.36-.06a35.47,35.47,0,0,1-6,0ZM5079,5080.54,5260.68,5143l411.41-192-296.83.11h-1l-165.85.06Zm937-112.07c29.59,4.86,122-10.17,183.19-23.27,8.16-6.05,23-16.73,40.18-27.62,31.64-20.08,53.24-29.57,68.47-34.1l62.06-117.33c-3.23.71-6.26,1.33-9.07,1.86-35.26,6.61-130.13,10.76-144.1,11.34a36.19,36.19,0,0,1-3.9,0,34.35,34.35,0,0,1-4.57-.51l-254.17-39.41-83.55,13.78V4895c49.79,30.55,118.58,68.42,144.46,73.31ZM2233.48,4945.2c61.23,13.1,153.63,28.12,183.18,23.27l1-.17c25.9-4.9,94.68-42.76,144.46-73.31V4753.23l-83.54-13.78-254.19,39.41a34.39,34.39,0,0,1-4.56.51,36.21,36.21,0,0,1-3.9,0c-14-.58-108.83-4.73-144.08-11.34q-4.23-.8-9.08-1.86l62.09,117.4c24.31,7.2,49.75,22.18,68.44,34C2210.48,4928.47,2225.32,4939.15,2233.48,4945.2Zm-435.67-52.66,51,62.19c20.19-8.47,50.53-20.83,83.8-33.14,50.76-18.77,86.71-29.35,112.27-35.25l-78-147.5c-53.18-16.93-108.6-36.32-130.82-44.18l-198.12,46.6c21.8,14.47,46.22,29.42,65.62,40.54a35.82,35.82,0,0,1,6.36,4.41,35.36,35.36,0,0,1,4.79,5l82.7,100.83C1797.54,4892.21,1797.68,4892.37,1797.81,4892.54Zm4589.94-6.2c25.56,5.9,61.52,16.48,112.27,35.25,33.27,12.31,63.61,24.67,83.8,33.14l51.06-62.25.31-.38,82.7-100.83a35.89,35.89,0,0,1,5.22-5.39,35.17,35.17,0,0,1,6-4.06c19.41-11.13,43.84-26.08,65.64-40.56l-198.12-46.6c-22.22,7.86-77.64,27.25-130.82,44.18Zm895.45-6.94,317.13.15v-304l-165.31-.06-233.63,176.2C7236,4803.87,7267.43,4854,7283.2,4879.4ZM832.33,4575.53v304l317.11-.15c15.77-25.38,47.25-75.53,81.81-127.73l-233.63-176.2Zm3243.55,304,140.45.05,140.46-.05c44.72-40.67,217.93-196.24,293-235.08,37.43-19.36,104.43-42.51,199.65-69l-633.14-.09-633.16.09c95.21,26.5,162.22,49.65,199.65,69C3857.92,4683.25,4031.15,4838.82,4075.88,4879.49ZM4919.83,4631c-146.46,38.57-209.67,63.3-236.93,77.4-45.6,23.59-144.41,106.45-218,171.09l186.94-.07,537.74-.19a36.8,36.8,0,0,1,8.26,0l65.67,0ZM3243.08,4879.19l537.73.19,187,.07c-73.61-64.65-172.45-147.51-218-171.08-27.26-14.1-90.48-38.84-236.93-77.41l-343.53,248.21,65.53,0A36.89,36.89,0,0,1,3243.08,4879.19Zm3495.86,0,459.26.22c-20.38-32.22-47.62-74.58-75.35-115.63l-.27-.4c-53.2-78.75-81-112.48-95-126.91-8.17-8.44-30.14-24.78-52.42-40.45-16.05,45.51-42.85,113.08-71.42,149.08-.38.49-.77,1-1.17,1.45-25.92,31.44-105.75,79.23-132.66,94.86ZM1309.75,4763.79c-27.71,41-54.93,83.36-75.3,115.57l459.25-.22-31-37.78c-26.9-15.63-106.67-63.38-132.63-94.82q-.63-.75-1.23-1.53c-28.57-36-55.35-103.55-71.4-149-22.28,15.67-44.24,32-52.41,40.46-13.94,14.39-41.72,48.09-94.94,126.85ZM2634.13,4879l359.1.13c-4.37-7.36-8.92-15.16-13.5-23.2-43.73-76.73-51.86-107.1-54.16-123.28-4.68-32.76,8-86.34,18-123.78,3.14-11.78,6.35-23.09,9.37-33.34l-255.78,0c-6.92,29.5-20.36,62.62-31.4,88.14-12.69,29.3-25.38,55.13-31.67,67.64ZM5479.65,4575.5c3,10.29,6.26,21.62,9.39,33.33,20.84,78.19,20.28,108.1,18.05,123.79-4.89,34.2-34,87.95-55.43,125.4-4.17,7.29-8.31,14.37-12.29,21.08l359.14-.13V4731.31c-6.29-12.51-19-38.34-31.67-67.64-17.53-40.52-26.74-68.38-31.44-88.14Zm-2451.48,0c-18.75,60-34.34,125.86-31.33,147,.81,5.66,6.47,29.42,45.44,97.79,9.06,15.89,18.06,30.93,25.66,43.32l353.83-255.65c-69.79-17-126.06-29.44-139.94-32.46Zm1982.72,32.42,353.83,255.54c7.32-11.94,15.94-26.32,24.63-41.5,39.87-69.64,45.64-93.76,46.46-99.5,3-21.09-12.59-86.93-31.33-147l-253.67,0C5136.93,4578.47,5080.67,4590.88,5010.89,4607.91Zm1001.23,67.68,204.41,31.7c31.08-1.34,105.88-5.33,131-10,11.38-2.14,34.79-7.76,81.67-22.36.48-.17,1-.32,1.48-.47,31.91-10,65.87-21.33,93.55-30.81-13.79-11.56-26.38-21.54-33.3-25.78-13.92-8.54-67.11-32-97.91-45.05q-.83-.33-1.62-.69a35.58,35.58,0,0,1-6.52-3.84l-168.58-119-137.1,113.82Zm-4008.62-.69c46.85,14.59,70.25,20.21,81.64,22.35,25.1,4.71,99.89,8.7,131,10l204.4-31.7-67.06-112.53-137.1-113.82-168.59,119a35.36,35.36,0,0,1-6.47,3.81c-.55.25-1.1.49-1.65.71-30.81,13-84,36.52-97.93,45.05-6.91,4.24-19.5,14.22-33.29,25.78,27.67,9.47,61.61,20.83,93.51,30.8C2002.47,4674.56,2003,4674.72,2003.5,4674.9Zm-886.36-99.47L1271.67,4692c34.84-50.13,62.24-85.59,81.64-105.63,3.19-3.29,7.27-7,12-11Zm5950.23-.08c4.69,4,8.77,7.7,12,11,19.43,20.07,46.83,55.53,81.65,105.63l154.52-116.54Zm-1264.53-34.12c-.15,3.94.75,26,29.92,93.47,7.88,18.23,15.89,35.27,22.12,48.13l76.64-12.63L6009.73,4539c-4.56-8.44-10-19.11-15.25-31-18.12-40.83-25.46-75.6-21.83-103.32,2.29-17.58,12.76-45.68,108.39-157.1,45.3-52.78,90.59-101.69,96.35-107.89a35.66,35.66,0,0,1,5-4.66,36.42,36.42,0,0,1,5.44-3.46c6.25-3.4,47.36-25.61,95.22-47.62,98-45.09,134.62-48.13,153.62-46.49,26.17,2.25,52.63,22,88.45,66.07,24.54,30.19,49.49,67.11,67.7,94.08,5.33,7.88,11.38,16.83,16.33,23.93,13.91-4.83,42-16.29,96.11-43.35,17.17-8.58,33.74-17.13,47.82-24.5l-172.79-187.54L6228.85,4010,6001.5,4187.77l-136.1,227.45c-.2.34-.4.67-.61,1-1.32,2.08-16.7,26.45-32,54.66-28.45,52.51-29.9,69.06-30,70.22Zm-3301.72,129,76.64,12.63c6.23-12.86,14.24-29.9,22.12-48.13,29.08-67.27,30.07-89.38,29.93-93.43a1.41,1.41,0,0,1,0-.2c-.09-1.31-1.68-18-30-70.19-15.9-29.36-31.91-54.55-32.07-54.8l-.61-1-136-227.3L2203.8,4010l-351.43-43.91-172.8,187.54c14.08,7.37,30.65,15.92,47.82,24.5,54.14,27.06,82.2,38.52,96.11,43.35,5-7.1,11-16.05,16.33-23.93,18.21-27,43.16-63.89,67.7-94.08,35.82-44.06,62.28-63.82,88.45-66.07,19-1.64,55.61,1.4,153.62,46.49,47.81,22,88.88,44.17,95.2,47.61a35.68,35.68,0,0,1,5.62,3.6,34.51,34.51,0,0,1,4.82,4.52c5.71,6.15,51,55.09,96.36,107.9,95.63,111.42,106.1,139.52,108.4,157.1,3.62,27.72-3.72,62.49-21.84,103.32-5.27,11.87-10.69,22.54-15.25,31Zm-986.37-129.61c11.36,35.55,35.06,102.09,58.55,141.91l198.87-46.78c-9.73-11.81-20.47-25.24-31.28-39.49-67.92-89.57-76.41-129.14-76.88-151.11-.58-26.7,15.41-58.61,51.84-103.48,18.23-22.44,38.76-44.63,56.29-63-18.28-7.75-40.7-18.18-66.82-31.08-23.8-11.75-46.81-23.64-64.85-33.13Zm5145.72,95.13,198.87,46.78c23.49-39.81,47.19-106.35,58.55-141.91l-125.72-326.13c-18,9.49-41.05,21.38-64.85,33.13-26.12,12.9-48.54,23.33-66.82,31.08,17.53,18.34,38.07,40.53,56.29,63,36.43,44.87,52.42,76.78,51.84,103.48-.47,22-9,61.54-76.88,151.11C6680.94,4610.48,6670.2,4623.91,6660.47,4635.72ZM1736,4443.88c.26,5.45,4.76,32.93,62,108.44,15.53,20.5,31.17,39.49,43.4,53.88,20.55-17.86,47.42-40.36,62.73-49.75s53.35-26.5,80.21-38.23l-43.11-180.38L1848.82,4303l-5.57,5.74c-18.41,18.93-46.23,47.54-69.41,75.76C1739.34,4426.45,1736.25,4442.07,1736,4443.88Zm4712.34,74.34c26.87,11.73,65,28.89,80.22,38.23s42.17,31.89,62.72,49.75c12.23-14.39,27.87-33.38,43.4-53.88,57.19-75.5,61.7-103,62-108.44-.25-1.81-3.35-17.43-37.84-59.42-23.18-28.22-51-56.83-69.41-75.76l-5.57-5.74-92.36,34.88Zm-3430.2-318.66-271.87,304,255.71,0,244.47,0-29.62-303.89Zm2168,303.89,244.47,0,255.71,0-271.86-304h-198.7Zm1993.23-.06,399.2.13-128.4-262.45c-9.92,17-21.53,36.3-34.21,56.3-54.34,85.72-98.42,137.67-134.76,158.85C7253.58,4472.34,7217.39,4488.46,7179.42,4503.39Zm-6197-262.32L854,4503.52l399.19-.13c-38-14.93-74.16-31.05-101.83-47.17-36.34-21.18-80.42-73.13-134.76-158.85C1004,4277.37,992.34,4258.05,982.42,4241.07Zm3233.9,262.24,897.53.13,29.62-303.88-927.14,0h0l-927.15,0,29.62,303.88,897.53-.13Zm2628.69-352,132.69,344.21c61.43-18.22,197.8-61.07,267.3-101.56,11.66-6.79,45.7-33.52,109.95-134.79,21.13-33.32,39.49-65.22,51.37-86.48l-152.44-122.33c-.45-.34-.89-.7-1.32-1.06l-169.8-136.27-341.15-89.54H6328.19l274,69.45a36.13,36.13,0,0,1,10.88,4.46h0l0,0a35.92,35.92,0,0,1,7.85,6.59l216,234.48a35.29,35.29,0,0,1,4.61,5.92A35.91,35.91,0,0,1,6845,4151.36Zm-5818.69,21.38c11.88,21.26,30.24,53.16,51.38,86.48,64.24,101.27,98.28,128,109.94,134.79,69.5,40.49,205.87,83.34,267.3,101.56l132.7-344.22a35.57,35.57,0,0,1,3.29-6.81,36.23,36.23,0,0,1,4.67-6l216-234.44a35.81,35.81,0,0,1,14.48-9.82,34.68,34.68,0,0,1,4.32-1.28l274-69.46H1691l-341.15,89.54-169.8,136.27c-.43.36-.87.71-1.31,1.05Zm1215.45,204,128.51,106.68c11.17-24.39,20-51.15,18.48-68.06-2-5.08-15.36-32.3-96-125.88-37.84-43.89-74.83-84.19-86.77-97.13-12.74-6.82-47.87-25.33-86.79-43.21-80.15-36.84-108.19-40.06-115.52-40.06h0c-3.29,1.66-16.65,10-44.62,45.27-21.16,26.7-42.43,58.19-59.53,83.5l-3.9,5.78L1984,4277l1,.38L2230.08,4370a35.49,35.49,0,0,1,4.5,1.94,35.1,35.1,0,0,1,5.62,3.58C2240.74,4375.89,2241.26,4376.32,2241.77,4376.77Zm3802.11,38.62c-1.55,16.92,7.31,43.67,18.48,68.06l128.5-106.68c.53-.45,1.06-.89,1.61-1.32a36.61,36.61,0,0,1,10.09-5.49l245.17-92.56q.47-.19.93-.36l88.4-33.38q-1.89-2.77-3.91-5.78c-17.1-25.31-38.37-56.8-59.53-83.5-28-35.3-41.33-43.61-44.61-45.27h0c-7.33,0-35.36,3.22-115.52,40.06-38.92,17.88-74,36.39-86.79,43.21-11.94,12.94-48.92,53.24-86.77,97.13C6059.24,4383.09,6045.89,4410.31,6043.88,4415.39Zm246.82-1.75,92.93,65.61,26.46-110.68Zm-4268.14-45.07L2049,4479.25l92.94-65.61Zm3488.54-169,241.54,270.08c4.64-9.8,10.26-20.87,17.07-33.42,16.08-29.67,31.78-54.61,34.15-58.36l106.69-178.31Zm-2882.32,178.3c2.37,3.75,18.07,28.69,34.16,58.36,6.8,12.55,12.42,23.62,17.06,33.42l241.54-270.08H2522.09Zm3414.83,38.28Zm-3654.58,0Zm5096-267.72,115.28,235.65V3853.85l-263.24,171L7474.3,4135a36.11,36.11,0,0,1,10.75,13.43ZM832.33,3853.86V4384l115.26-235.62a35.41,35.41,0,0,1,3.88-6.48v0l0,0a36.24,36.24,0,0,1,3.68-4.17h0l.08-.08.06-.06h0a36.5,36.5,0,0,1,3-2.57l137.23-110.12Zm4937.88,273.68h191.44l230.22-180a35.89,35.89,0,0,1,18.77-7.8l189.54-23.68-348.81-88.41Zm-670.3,0h571.61l246.71-263.15Zm-447.1,0h211.9l248.68-80,27.76-224H4311Zm-436.49,0h328.15l-328.14-291.83-328.15,291.83Zm-648.39,0h211.91l341.83-304H3291.5l27.75,224Zm-806.81,0h571.61l-818.32-263.15Zm-290.12,0h191.43l-281.16-299.89-348.8,88.41L2222,3939.74a36,36,0,0,1,18.77,7.8Zm151.56-304,621.13,199.73L3219,3823.54Zm2591.14,0L5189,4023.27l621.13-199.73Zm1811.51,0,83.24,21.84a36,36,0,0,1,13.39,6.75L7278,3977.42l236.86-153.88Zm-6107.39,0,236.85,153.88,156.13-125.29a36,36,0,0,1,13.39-6.75l83.24-21.84Z" transform="translate(-760.32 -646.54)"/></svg>